<svg width="44" height="32" viewBox="0 0 44 32" fill="none" xmlns="http://www.w3.org/2000/svg">
<path d="M40 0C41.0608 0 42.0783 0.421427 42.8284 1.17157C43.5785 1.92172 44 2.93913 44 4V28C44 29.0609 43.5785 30.0783 42.8284 30.8284C42.0783 31.5786 41.0608 32 40 32H7.99998C6.93912 32 5.9217 31.5786 5.17155 30.8284C4.42141 30.0783 3.99998 29.0609 3.99998 28V26H7.99998V28H40V6.846L26.13 20.716C25.5674 21.2784 24.8045 21.5944 24.009 21.5944C23.2135 21.5944 22.4506 21.2784 21.888 20.716L7.99998 6.828V8H3.99998V4C3.99998 2.93913 4.42141 1.92172 5.17155 1.17157C5.9217 0.421427 6.93912 0 7.99998 0H40ZM12 18C12.5097 18.0006 13 18.1958 13.3707 18.5457C13.7414 18.8956 13.9645 19.3739 13.9943 19.8828C14.0242 20.3917 13.8586 20.8928 13.5315 21.2837C13.2043 21.6746 12.7402 21.9258 12.234 21.986L12 22H1.99998C1.49022 21.9994 0.999917 21.8042 0.629245 21.4543C0.258573 21.1044 0.0355116 20.6261 0.00563734 20.1172C-0.0242369 19.6083 0.141331 19.1072 0.468511 18.7163C0.795692 18.3254 1.25979 18.0742 1.76598 18.014L1.99998 18H12ZM9.99998 12C10.5304 12 11.0391 12.2107 11.4142 12.5858C11.7893 12.9609 12 13.4696 12 14C12 14.5304 11.7893 15.0391 11.4142 15.4142C11.0391 15.7893 10.5304 16 9.99998 16H3.99998C3.46955 16 2.96084 15.7893 2.58577 15.4142C2.2107 15.0391 1.99998 14.5304 1.99998 14C1.99998 13.4696 2.2107 12.9609 2.58577 12.5858C2.96084 12.2107 3.46955 12 3.99998 12H9.99998Z" fill="#0D519B"/>
</svg>
