<svg width="32" height="32" viewBox="0 0 32 32" fill="none" xmlns="http://www.w3.org/2000/svg">
<path d="M21 17.0526H23.8684V20.7368H27.0263V24H23.8684V27.5H21V24H18V20.7368H21V17.0526ZM24.921 14.4211V11.2632H8.0789V14.4211H24.921ZM17.5526 16.5263V18.2947C16.8894 19.2947 16.4999 20.4947 16.4999 21.7895C16.4999 22.9368 16.8052 24.0211 17.3421 24.9474H8.0789C7.52055 24.9474 6.98506 24.7256 6.59025 24.3308C6.19544 23.9359 5.97363 23.4005 5.97363 22.8421V6L7.73153 7.75789L9.4789 6L11.2368 7.75789L12.9947 6L14.7421 7.75789L16.4999 6L18.2578 7.75789L20.0052 6L21.7631 7.75789L23.521 6L25.2684 7.75789L27.0263 6V17.0526C25.857 16.0393 24.363 15.479 22.8157 15.4737C21.521 15.4737 20.321 15.8632 19.321 16.5263H17.5526ZM15.4473 22.8421V16.5263H8.0789V22.8421H15.4473Z" fill="#1EACFF"/>
</svg>
