<svg width="1358" height="966" viewBox="0 0 1358 966" fill="none" xmlns="http://www.w3.org/2000/svg">
<path d="M1120.36 856.027L1503.93 1221.5C1510.33 1227.6 1518.83 1231 1527.67 1231C1536.52 1231 1545.02 1227.6 1551.42 1221.5L1551.83 1221.08C1554.95 1218.12 1557.42 1214.56 1559.12 1210.62C1560.81 1206.67 1561.69 1202.42 1561.69 1198.13C1561.69 1193.83 1560.81 1189.59 1559.12 1185.64C1557.42 1181.69 1554.95 1178.13 1551.83 1175.18L1190.63 831.043L1551.83 487.048C1554.95 484.09 1557.42 480.53 1559.12 476.584C1560.81 472.638 1561.69 468.388 1561.69 464.094C1561.69 459.8 1560.81 455.55 1559.12 451.604C1557.42 447.658 1554.95 444.098 1551.83 441.14L1551.42 440.727C1545.02 434.626 1536.52 431.223 1527.67 431.223C1518.83 431.223 1510.33 434.626 1503.93 440.727L1120.36 806.196C1116.99 809.41 1114.3 813.276 1112.46 817.559C1110.63 821.841 1109.68 826.452 1109.68 831.111C1109.68 835.771 1110.63 840.382 1112.46 844.664C1114.3 848.947 1116.99 852.813 1120.36 856.027Z" fill="white"/>
<path d="M1256.3 855.804L1639.87 1221.27C1646.27 1227.37 1654.77 1230.78 1663.61 1230.78C1672.46 1230.78 1680.96 1227.37 1687.36 1221.27L1687.77 1220.86C1690.88 1217.9 1693.36 1214.34 1695.06 1210.4C1696.75 1206.45 1697.63 1202.2 1697.63 1197.91C1697.63 1193.61 1696.75 1189.36 1695.06 1185.42C1693.36 1181.47 1690.88 1177.91 1687.77 1174.95L1326.57 830.82L1687.77 486.825C1690.88 483.867 1693.36 480.307 1695.06 476.361C1696.75 472.415 1697.63 468.166 1697.63 463.871C1697.63 459.577 1696.75 455.328 1695.06 451.382C1693.36 447.436 1690.88 443.875 1687.77 440.918L1687.36 440.505C1680.96 434.404 1672.46 431 1663.61 431C1654.77 431 1646.27 434.404 1639.87 440.505L1256.3 805.974C1252.92 809.188 1250.24 813.053 1248.4 817.336C1246.57 821.619 1245.62 826.229 1245.62 830.889C1245.62 835.548 1246.57 840.159 1248.4 844.442C1250.24 848.724 1252.92 852.59 1256.3 855.804Z" fill="white"/>
<path d="M995.675 855.804L1379.25 1221.27C1385.65 1227.37 1394.15 1230.78 1402.99 1230.78C1411.83 1230.78 1420.34 1227.37 1426.74 1221.27L1427.15 1220.86C1430.26 1217.9 1432.74 1214.34 1434.43 1210.4C1436.13 1206.45 1437 1202.2 1437 1197.91C1437 1193.61 1436.13 1189.36 1434.43 1185.42C1432.74 1181.47 1430.26 1177.91 1427.15 1174.95L1065.95 830.82L1427.15 486.825C1430.26 483.867 1432.74 480.307 1434.43 476.361C1436.13 472.415 1437 468.166 1437 463.871C1437 459.577 1436.13 455.328 1434.43 451.382C1432.74 447.436 1430.26 443.875 1427.15 440.918L1426.74 440.505C1420.34 434.404 1411.83 431 1402.99 431C1394.15 431 1385.65 434.404 1379.25 440.505L995.675 805.974C992.302 809.188 989.616 813.053 987.781 817.336C985.946 821.619 985 826.229 985 830.889C985 835.548 985.946 840.159 987.781 844.442C989.616 848.724 992.302 852.59 995.675 855.804Z" fill="white"/>
<path d="M357.854 242.034L665.563 -80.9157C670.7 -86.3043 673.565 -93.4633 673.565 -100.908C673.565 -108.353 670.7 -115.512 665.563 -120.9L665.215 -121.248C662.725 -123.87 659.728 -125.957 656.405 -127.383C653.083 -128.809 649.505 -129.545 645.889 -129.545C642.274 -129.545 638.696 -128.809 635.373 -127.383C632.051 -125.957 629.054 -123.87 626.563 -121.248L336.819 182.868L47.1898 -121.248C44.6995 -123.87 41.702 -125.957 38.3796 -127.383C35.0573 -128.809 31.4794 -129.545 27.8638 -129.545C24.2482 -129.545 20.6704 -128.809 17.348 -127.383C14.0256 -125.957 11.0281 -123.87 8.5379 -121.248L8.19012 -120.9C3.05328 -115.512 0.187622 -108.353 0.187622 -100.908C0.187622 -93.4633 3.05328 -86.3043 8.19012 -80.9157L315.899 242.034C318.605 244.874 321.86 247.135 325.466 248.68C329.072 250.225 332.954 251.022 336.877 251.022C340.799 251.022 344.682 250.225 348.288 248.68C351.893 247.135 355.148 244.874 357.854 242.034Z" fill="white"/>
<path d="M357.666 127.579L665.375 -195.371C670.512 -200.759 673.378 -207.918 673.378 -215.363C673.378 -222.808 670.512 -229.967 665.375 -235.355L665.028 -235.703C662.537 -238.324 659.54 -240.412 656.218 -241.838C652.895 -243.264 649.317 -244 645.702 -244C642.086 -244 638.508 -243.264 635.186 -241.838C631.863 -240.412 628.866 -238.324 626.376 -235.703L336.631 68.4129L47.0022 -235.703C44.5119 -238.324 41.5144 -240.412 38.192 -241.838C34.8696 -243.264 31.2918 -244 27.6762 -244C24.0606 -244 20.4828 -243.264 17.1604 -241.838C13.838 -240.412 10.8405 -238.324 8.35028 -235.703L8.0025 -235.355C2.86566 -229.967 0 -222.808 0 -215.363C0 -207.918 2.86566 -200.759 8.0025 -195.371L315.711 127.579C318.417 130.419 321.672 132.68 325.278 134.225C328.884 135.77 332.766 136.567 336.689 136.567C340.612 136.567 344.494 135.77 348.1 134.225C351.706 132.68 354.96 130.419 357.666 127.579Z" fill="white"/>
<path d="M357.666 347.012L665.375 24.0626C670.512 18.6741 673.378 11.515 673.378 4.07022C673.378 -3.37451 670.512 -10.5335 665.375 -15.9221L665.028 -16.2698C662.537 -18.8912 659.54 -20.9785 656.218 -22.4048C652.895 -23.8311 649.317 -24.5667 645.702 -24.5667C642.086 -24.5667 638.508 -23.8311 635.186 -22.4048C631.863 -20.9785 628.866 -18.8912 626.376 -16.2698L336.631 287.846L47.0022 -16.2698C44.5119 -18.8912 41.5144 -20.9785 38.192 -22.4048C34.8696 -23.8311 31.2918 -24.5667 27.6762 -24.5667C24.0606 -24.5667 20.4828 -23.8311 17.1604 -22.4048C13.838 -20.9785 10.8405 -18.8912 8.35028 -16.2698L8.0025 -15.9221C2.86566 -10.5335 0 -3.37451 0 4.07022C0 11.515 2.86566 18.6741 8.0025 24.0626L315.711 347.012C318.417 349.852 321.672 352.113 325.278 353.658C328.884 355.203 332.766 356 336.689 356C340.612 356 344.494 355.203 348.1 353.658C351.706 352.113 354.96 349.852 357.666 347.012Z" fill="white"/>
</svg>
