<svg width="2030" height="1150" viewBox="0 0 2030 1150" fill="none" xmlns="http://www.w3.org/2000/svg">
<g clip-path="url(#clip0_445_78)">
<mask id="mask0_445_78" style="mask-type:luminance" maskUnits="userSpaceOnUse" x="-1" y="-30" width="2031" height="1151">
<path d="M2029.41 -29.5957H-0.000244141V1120.4H2029.41V-29.5957Z" fill="white"/>
</mask>
<g mask="url(#mask0_445_78)">
<mask id="mask1_445_78" style="mask-type:luminance" maskUnits="userSpaceOnUse" x="-76" y="-30" width="2122" height="1156">
<path d="M2045.51 -29.5957H-75.2693V1125.58H2045.51V-29.5957Z" fill="white"/>
</mask>
<g mask="url(#mask1_445_78)">
<path fill-rule="evenodd" clip-rule="evenodd" d="M-290.135 744.19L-267.47 736.134L-233.971 737.569L-190.588 729.11L-142.62 711.606L-99.5933 737.056L-28.2414 741.774L61.7578 757.259L120.763 763.714L318.684 776.432L511.344 702.005L577.13 641.077L611.13 606.781C611.13 606.781 673.857 574.954 684.769 566.582C695.677 558.209 731.99 513.902 731.99 513.902L758.52 482.359L797.15 433.96L840.437 398.603L891.632 346.329L929.146 307.405L964.862 274.902L993.385 237.824L1016.84 228.592L1033.96 230.392L1080.85 273.145L1097.11 285.287L1120.09 309.481L1132.5 324.543L1158.41 349.413L1162.3 366.177L1180.73 394.389L1200.15 423.88L1229.83 445.477L1249.83 449.66L1263.05 467.534L1263.31 490.181C1263.31 490.181 1276.2 500.784 1278.5 505.192C1280.81 509.603 1322.57 550.542 1322.57 550.542L1342.79 571.014L1367.76 579.657L1399.33 586.93L1426.61 599.98L1444.91 625.86L1464.87 632.431L1484.36 647.283L1510.06 662.506L1555.04 692.847C1555.04 692.847 1568.18 704.922 1565.42 709.184C1562.66 713.439 1580.63 719.513 1583.11 724.67C1585.61 729.828 1626.58 767.847 1626.58 767.847L1698.92 760.769L1747.61 783.068L1775.96 779.582L1856.58 733.22L1936.81 778.577L2035.56 748.698C2035.56 748.698 2153.42 836.628 2162.34 837.887C2171.26 839.142 2207.75 894.168 2207.75 894.168C2207.75 894.168 2066.31 948.283 2059.44 945.345C2052.57 942.411 1902.27 845.162 1902.27 845.162C1902.27 845.162 1834.66 846.148 1826.39 847.022C1818.11 847.893 1765.83 897.724 1765.83 897.724L1721.08 950.853C1721.08 950.853 1748.17 1031.71 1744.91 1033.15C1741.65 1034.59 1976.52 1256.67 1976.52 1256.67L-354.354 1220.64L-290.135 744.19Z" fill="#F5F5F5"/>
<path fill-rule="evenodd" clip-rule="evenodd" d="M-290.135 744.19L-267.47 736.134L-233.971 737.569L-190.588 729.11L-142.62 711.606L-99.5933 737.056L-28.2414 741.774L61.7578 757.259L120.763 763.714L318.684 776.432L511.344 702.005L577.13 641.077L611.13 606.781C611.13 606.781 673.857 574.954 684.769 566.582C695.677 558.209 731.99 513.902 731.99 513.902L758.52 482.359L797.15 433.96L840.437 398.603L891.632 346.329L929.146 307.405L964.862 274.902L993.385 237.824L1016.84 228.592L1033.96 230.392L1080.85 273.145L1097.11 285.287L1120.09 309.481L1132.5 324.543L1158.41 349.413L1162.3 366.177L1180.73 394.389L1200.15 423.88L1229.83 445.477L1249.83 449.66L1263.05 467.534L1263.31 490.181C1263.31 490.181 1276.2 500.784 1278.5 505.192C1280.81 509.603 1322.57 550.542 1322.57 550.542L1342.79 571.014L1367.76 579.657L1399.33 586.93L1426.61 599.98L1444.91 625.86L1464.87 632.431L1484.36 647.283L1510.06 662.506L1555.04 692.847C1555.04 692.847 1568.18 704.922 1565.42 709.184C1562.66 713.439 1580.63 719.513 1583.11 724.67C1585.61 729.828 1626.58 767.847 1626.58 767.847L1698.92 760.769L1747.61 783.068L1775.96 779.582L1856.58 733.22L1936.81 778.577L2035.56 748.698C2035.56 748.698 2153.42 836.628 2162.34 837.887C2171.26 839.142 2207.75 894.168 2207.75 894.168C2207.75 894.168 2066.31 948.283 2059.44 945.345C2052.57 942.411 1902.27 845.162 1902.27 845.162C1902.27 845.162 1834.66 846.148 1826.39 847.022C1818.11 847.893 1765.83 897.724 1765.83 897.724L1721.08 950.853C1721.08 950.853 1748.17 1031.71 1744.91 1033.15C1741.65 1034.59 1976.52 1256.67 1976.52 1256.67L-354.354 1220.64L-290.135 744.19Z" fill="white"/>
</g>
<mask id="mask2_445_78" style="mask-type:luminance" maskUnits="userSpaceOnUse" x="-76" y="-30" width="2122" height="1156">
<path d="M2045.51 -29.5957H-75.2693V1125.58H2045.51V-29.5957Z" fill="white"/>
</mask>
<g mask="url(#mask2_445_78)">
<path d="M1034.84 408.225L998.259 406.604V462.416L930.604 497.244V525.641L957.809 547.992L1049.84 720.741L1067.04 755.956H1094.19L1205.8 896.54C1205.8 896.54 1284.72 864.341 1282.84 858.319C1280.96 852.297 1249.02 798.103 1249.02 798.103L1188.9 692.729L1165.52 603.916L1141.93 503.058L1116.29 491.016L1087.35 493.94L1094.96 579.83L1079.93 593.379L1059.27 539.185L1044.7 485.415L1034.84 408.225Z" fill="#5E6C76"/>
</g>
<mask id="mask3_445_78" style="mask-type:luminance" maskUnits="userSpaceOnUse" x="-76" y="-30" width="2122" height="1156">
<path d="M2045.51 -29.5957H-75.2693V1125.58H2045.51V-29.5957Z" fill="white"/>
</mask>
<g mask="url(#mask3_445_78)">
<path fill-rule="evenodd" clip-rule="evenodd" d="M758.423 485.923L745.079 548.238L814.876 554.632L867.658 629.397L885.722 694.398L918.666 759.594L971.807 749.013L1036.77 787.056L1084.26 841.96C1084.26 841.96 1140.29 882.285 1137.04 871.294C1133.79 860.301 1171.52 889.698 1171.52 889.698L1207.48 928.883L1251.03 875.191L1270.91 811.833C1270.91 811.833 1309.24 814.765 1308.57 823.966C1307.9 833.171 1347.36 864.19 1347.36 864.19L1390.91 866.541C1390.91 866.541 1453.92 851.82 1460.22 861.096C1466.53 870.372 1499.94 876.205 1499.94 876.205C1499.94 876.205 1542.75 907.474 1549.13 906.355C1555.51 905.243 1605.34 888.338 1605.34 888.338L1654 890.207L1696.02 915.514L1748.04 929.707C1748.04 929.707 1724.03 961.045 1714.73 965.696C1705.44 970.349 1696.55 1007.76 1696.55 1007.76L1735.55 1023.29L1650.63 1057.84L1550.07 1157.24L1485.95 1169.82L610.508 1229.37L324.604 1174.3L367.525 1099.73C367.525 1099.73 311.783 1077.75 302.881 1078.82C293.974 1079.89 342.432 1012.02 342.432 1012.02C342.432 1012.02 134.402 897.715 128.094 900.511C121.793 903.304 268.491 816.631 268.491 816.631L384.311 766.012L465.23 732.77L531.812 683.631L593.972 631.197L629.638 597.837L675.545 574.871L758.423 485.923Z" fill="#5E6C76"/>
</g>
<mask id="mask4_445_78" style="mask-type:luminance" maskUnits="userSpaceOnUse" x="-76" y="-30" width="2122" height="1156">
<path d="M2045.51 -29.5957H-75.2693V1125.58H2045.51V-29.5957Z" fill="white"/>
</mask>
<g mask="url(#mask4_445_78)">
<path fill-rule="evenodd" clip-rule="evenodd" d="M-143.451 959.604C-136.533 957.387 -31.4061 882.022 -23.1069 885.348C-14.8077 888.674 36.6724 908.582 54.3555 913.057C72.0386 917.528 177.465 901.973 177.465 901.973C177.465 901.973 252.162 936.332 263.226 940.764C274.29 945.197 383.568 996.178 387.719 999.504C391.87 1002.83 364.205 1017.24 353.139 1032.76C342.073 1048.27 384.41 1074.87 388.139 1078.2C391.87 1081.52 384.952 1099.25 382.187 1107.01C379.423 1114.77 366.973 1134.72 366.973 1134.72C366.973 1134.72 -132.383 1156.89 -133.766 1150.24C-135.152 1143.58 -143.451 959.604 -143.451 959.604Z" fill="#515A60"/>
</g>
<mask id="mask5_445_78" style="mask-type:luminance" maskUnits="userSpaceOnUse" x="-76" y="-30" width="2122" height="1156">
<path d="M2045.51 -29.5957H-75.2693V1125.58H2045.51V-29.5957Z" fill="white"/>
</mask>
<g mask="url(#mask5_445_78)">
<path fill-rule="evenodd" clip-rule="evenodd" d="M1643.56 959.763C1646.79 958.901 1696.32 915.591 1699.87 916.56C1703.42 917.532 1766.14 857.229 1769.37 855.509C1772.6 853.786 1801.12 825.447 1801.12 825.447C1801.12 825.447 1825.28 820.372 1829.59 825.447C1833.9 830.523 1862.93 822.753 1876.91 823.191C1890.89 823.63 1885.51 812.378 1899.49 823.174C1913.47 833.97 1910.24 827.079 1926.37 837.418C1942.5 847.754 1960.78 858.097 1975.84 864.126C1990.9 870.156 2001.65 864.986 2009.18 877.049C2016.7 889.11 2035.22 902.037 2040.36 903.758C2045.51 905.482 2055.42 903.756 2057.57 908.064C2059.72 912.375 2088.75 1142.42 2078 1139.84C2067.25 1137.26 1757.55 1130.28 1758.62 1125.58C1759.7 1120.88 1777.97 1070.91 1769.37 1068.32C1760.77 1065.74 1727.43 1058.84 1733.89 1048.51C1740.34 1038.17 1770.45 1023.52 1752.17 1017.49C1733.89 1011.46 1696.55 1007.76 1696.55 1007.76L1643.56 959.763Z" fill="#5E6C76"/>
</g>
<mask id="mask6_445_78" style="mask-type:luminance" maskUnits="userSpaceOnUse" x="-76" y="-30" width="2122" height="1156">
<path d="M2045.51 -29.5957H-75.2693V1125.58H2045.51V-29.5957Z" fill="white"/>
</mask>
<g mask="url(#mask6_445_78)">
<path fill-rule="evenodd" clip-rule="evenodd" d="M446.088 1078.92L485.36 1026.45L530.216 1049.11L579.837 1064.28L589.043 1087.31L651.532 1076.44L676.147 1080.91L694.811 1068.42L708.944 1069.8L726.323 1053.83L768.798 1028.08L882.446 985.218L884.035 992.625L963.669 966.188L976.425 968.979C976.425 968.979 982.75 968.313 986.187 966.559C989.627 964.802 1104.32 922.026 1104.32 922.026L1154.95 912.539C1154.95 912.539 1181.56 906.715 1191.52 900.333C1201.49 893.956 1214 897.544 1214 897.544L1240.76 899.758C1240.76 899.758 1325.58 866 1344.76 862.751C1363.94 859.499 1348.74 879.002 1348.74 879.002L1278 927.534L1300.87 930.402L1287.89 946.411L1218.22 1009.14L1277.27 984.754L1270.5 1007.78L1329.55 999.328L1217.15 1080.52L1331.77 1033.7L1225.05 1113.88L1445.57 1015.84L1421.21 1096.09L1446.93 1140.71L1508.31 1186.19L464.104 1254.08L603.195 1151.38L494.249 1180.77L538.132 1131.4C538.132 1131.4 515.642 1125.4 506.596 1128.35C497.549 1131.3 464.054 1136.25 476.021 1124.2C487.994 1112.16 509.45 1085.42 509.45 1085.42L459.358 1095.75L446.088 1078.92Z" fill="#515A60"/>
</g>
<mask id="mask7_445_78" style="mask-type:luminance" maskUnits="userSpaceOnUse" x="-76" y="-30" width="2122" height="1156">
<path d="M2045.51 -29.5957H-75.2693V1125.58H2045.51V-29.5957Z" fill="white"/>
</mask>
<g mask="url(#mask7_445_78)">
<path fill-rule="evenodd" clip-rule="evenodd" d="M616.662 667.21L553.928 724.399L585.249 738.9L605.09 787.151L622.12 764.546C622.12 764.546 636.703 799.94 637.134 805.96C637.563 811.978 653.108 768.855 653.108 768.855L701.031 777.197L729.604 824.435L739.461 786.573L693.127 742.116L681.154 709.219L616.662 667.21Z" fill="#515A60"/>
</g>
<mask id="mask8_445_78" style="mask-type:luminance" maskUnits="userSpaceOnUse" x="-76" y="-30" width="2122" height="1156">
<path d="M2045.51 -29.5957H-75.2693V1125.58H2045.51V-29.5957Z" fill="white"/>
</mask>
<g mask="url(#mask8_445_78)">
<path fill-rule="evenodd" clip-rule="evenodd" d="M365.71 831.91L431.291 847.841L502.178 873.424L528.121 850.883L575.101 882.598L594.281 855.15L643.671 919.701L697.726 989.376L695.988 925.213L668.581 904.775L678.151 871.796L765.315 934.313L763.182 972.255L743.151 975.295L752.937 1022.82L711.569 1015.82L708.855 1053.77L641.627 951.508L615.681 1052.21L564.649 910.985L527.449 988.663L461.294 963.631L454.523 915.413L384.311 901.185L376.658 873.588L344.799 875.674L365.71 831.91Z" fill="#515A60"/>
</g>
<mask id="mask9_445_78" style="mask-type:luminance" maskUnits="userSpaceOnUse" x="-76" y="-30" width="2122" height="1156">
<path d="M2045.51 -29.5957H-75.2693V1125.58H2045.51V-29.5957Z" fill="white"/>
</mask>
<g mask="url(#mask9_445_78)">
<path fill-rule="evenodd" clip-rule="evenodd" d="M1084.42 683.449C1084.42 683.449 1116.42 747 1111.57 744.269C1106.71 741.538 1082.07 734.143 1082.07 734.143L1122.03 806.126L1146.66 804.753L1165.87 827.611L1192 873.745L1188.8 814.352L1222.91 836.483C1222.91 836.483 1200.56 794.76 1197.99 790.121C1195.42 785.474 1206.39 756.682 1206.39 756.682L1207.96 743.124L1180.62 735.584L1171.94 696.704L1121.74 631.025L1122.66 670.119L1084.42 683.449Z" fill="#59666F"/>
</g>
<mask id="mask10_445_78" style="mask-type:luminance" maskUnits="userSpaceOnUse" x="-76" y="-30" width="2122" height="1156">
<path d="M2045.51 -29.5957H-75.2693V1125.58H2045.51V-29.5957Z" fill="white"/>
</mask>
<g mask="url(#mask10_445_78)">
<path fill-rule="evenodd" clip-rule="evenodd" d="M1314.21 708.995L1352.02 792.974L1395.94 777.195L1411.81 842.31L1444.98 823.276L1480.67 842.31L1531.37 844.598L1545.24 854.709L1654.88 800.293L1711.7 786.861L1745.38 789.202L1801.12 825.445L1870.4 717.06L1771.87 750.901L1770.73 736.497C1770.73 736.497 1751.47 751.386 1744.96 758.953C1738.45 766.518 1712.77 750.785 1712.77 750.785L1694.26 746.324L1636.36 770.626L1611.89 762.895L1591.32 780.663L1568.24 751.506L1530.44 751.224L1497.97 735.095L1469.91 744.881L1439.65 745.111L1402.62 692.003L1382.34 728.417L1372.23 694.118L1314.21 708.995Z" fill="#5E6C76"/>
</g>
<mask id="mask11_445_78" style="mask-type:luminance" maskUnits="userSpaceOnUse" x="-76" y="-30" width="2122" height="1156">
<path d="M2045.51 -29.5957H-75.2693V1125.58H2045.51V-29.5957Z" fill="white"/>
</mask>
<g mask="url(#mask11_445_78)">
<path fill-rule="evenodd" clip-rule="evenodd" d="M1818.84 761.593L1870.4 717.06L1893.04 727.99C1893.04 727.99 1907.02 744.362 1915.62 746.944C1924.22 749.53 1951.11 747.807 1958.64 747.807C1966.16 747.807 1973.69 745.221 1977.99 746.944C1982.3 748.667 1988.74 752.978 1996.28 750.392C2003.8 747.807 2055.42 730.574 2055.42 730.574C2055.42 730.574 2069.4 868.435 2066.17 864.123C2062.94 859.814 2044.67 828.796 2013.48 826.21C1982.3 823.624 1960.79 822.767 1925.3 820.181C1889.81 817.595 1848.96 813.286 1841.43 815.872C1833.89 818.456 1795.99 826.438 1795.99 826.438L1818.84 761.593Z" fill="#F5F5F5"/>
</g>
<mask id="mask12_445_78" style="mask-type:luminance" maskUnits="userSpaceOnUse" x="-76" y="-30" width="2122" height="1156">
<path d="M2045.51 -29.5957H-75.2693V1125.58H2045.51V-29.5957Z" fill="white"/>
</mask>
<g mask="url(#mask12_445_78)">
<path fill-rule="evenodd" clip-rule="evenodd" d="M895.971 387.214C895.971 387.214 925.671 403.703 927.898 412.265C930.128 420.827 928.197 429.106 928.197 429.106C928.197 429.106 896.711 447.591 892.532 455.969C888.35 464.346 888.506 451.066 880.231 444.316C871.958 437.566 865.371 424.176 859.668 423.403C853.962 422.627 892.349 390.424 895.971 387.214Z" fill="#5E6C76"/>
</g>
<mask id="mask13_445_78" style="mask-type:luminance" maskUnits="userSpaceOnUse" x="-76" y="-30" width="2122" height="1156">
<path d="M2045.51 -29.5957H-75.2693V1125.58H2045.51V-29.5957Z" fill="white"/>
</mask>
<g mask="url(#mask13_445_78)">
<path fill-rule="evenodd" clip-rule="evenodd" d="M998.259 406.604C998.259 406.604 1032.08 384.106 1039.66 386.719C1047.24 389.334 1045.53 395.37 1049.63 405.391C1053.73 415.415 1060.65 423.55 1054.19 429.251C1047.72 434.956 1047.51 449.901 1049.08 454.357C1050.65 458.814 1049.31 475.31 1049.31 475.31L1060.05 490.585L1052.73 507.996L1044.7 485.417L1038.01 461.391L1019.83 463.185L1027.98 446.056L1003.68 451.815L998.259 406.604Z" fill="#5E6C76"/>
</g>
<mask id="mask14_445_78" style="mask-type:luminance" maskUnits="userSpaceOnUse" x="-76" y="-30" width="2122" height="1156">
<path d="M2045.51 -29.5957H-75.2693V1125.58H2045.51V-29.5957Z" fill="white"/>
</mask>
<g mask="url(#mask14_445_78)">
<path fill-rule="evenodd" clip-rule="evenodd" d="M739.202 519.752L712.198 557.676L729.987 557.222L753.376 587.259L758.291 563.304L775.947 562.478L755.926 515.409L739.202 519.752Z" fill="#5E6C76"/>
</g>
<mask id="mask15_445_78" style="mask-type:luminance" maskUnits="userSpaceOnUse" x="-76" y="-30" width="2122" height="1156">
<path d="M2045.51 -29.5957H-75.2693V1125.58H2045.51V-29.5957Z" fill="white"/>
</mask>
<g mask="url(#mask15_445_78)">
<path fill-rule="evenodd" clip-rule="evenodd" d="M774.233 494.851L770.813 505.4L789.586 556.285L815.582 558.85L853.571 607.317L774.233 494.851Z" fill="#5E6C76"/>
</g>
<mask id="mask16_445_78" style="mask-type:luminance" maskUnits="userSpaceOnUse" x="-76" y="-30" width="2122" height="1156">
<path d="M2045.51 -29.5957H-75.2693V1125.58H2045.51V-29.5957Z" fill="white"/>
</mask>
<g mask="url(#mask16_445_78)">
<path fill-rule="evenodd" clip-rule="evenodd" d="M810.854 480.596L814.016 472.909L853.803 544.445L810.854 480.596Z" fill="#5E6C76"/>
</g>
<mask id="mask17_445_78" style="mask-type:luminance" maskUnits="userSpaceOnUse" x="-76" y="-30" width="2122" height="1156">
<path d="M2045.51 -29.5957H-75.2693V1125.58H2045.51V-29.5957Z" fill="white"/>
</mask>
<g mask="url(#mask17_445_78)">
<path fill-rule="evenodd" clip-rule="evenodd" d="M930.605 497.244L905.047 525.206L905.751 559.797L934.664 591.467L932.02 568.053L997.941 636.664L1053 725.879L1026.11 637.717L1049 641.58L1042.52 613.604L1062.87 617.361L1059.22 598.144L1041.95 595.415L1040.04 579.116C1040.04 579.116 1041.78 563.741 1038.63 562.201C1035.49 560.662 1025.43 561.056 1025.43 561.056L1015.57 557.191L1029.75 539.228C1029.75 539.228 1025.83 513.738 1022.31 515.492C1018.8 517.245 992.243 532.856 992.243 532.856L984.628 519.022L962.331 503.038L930.605 497.244Z" fill="#59666F"/>
</g>
<mask id="mask18_445_78" style="mask-type:luminance" maskUnits="userSpaceOnUse" x="-76" y="-30" width="2122" height="1156">
<path d="M2045.51 -29.5957H-75.2693V1125.58H2045.51V-29.5957Z" fill="white"/>
</mask>
<g mask="url(#mask18_445_78)">
<path fill-rule="evenodd" clip-rule="evenodd" d="M1023.84 226.327L1009.07 231.439L1001.3 226.394L986.093 227.889L977.245 232.592L964.816 244.109L950.804 251.26L945.458 261.222L931.485 267.153L920.182 271.142L910.333 277.235L903.906 285.233L892.826 296.664L880.863 308.803L853.767 324.897L850.083 350.786L844.277 359.497L806.435 385.379L802.983 401.366L797.082 411.602L767.222 422.968L752.59 439.337L757.047 452.9L753.798 473.765L727.083 505.657L704.285 533.043L682.877 553.84L654.916 568.685L626.289 568.138L608.992 573.277L559.568 631.252L536.153 647.427L494.905 685.141L459.662 696.984L426.026 718.205L391.704 734.973L354.713 746.322L314.904 742.981L277.793 744.327L248.822 757.705L222.174 763.437L201.95 760.761L183.824 748.133L161.081 748.657L143.427 743.104L126.185 753.093L109.36 762.367L81.0175 839.206L4.01551 925.319L-26.9492 1004.95L105.199 955.597L163.737 926.972L186.253 901.896L247.843 883.816L267.459 874.345L296.057 858.641L312.674 824.493L350.309 796.467L401.051 782.479L421.577 769.259L491.321 739.62L516.197 715.473L550.114 691.839L586.107 649.299L621.664 617.911L643.317 602.576L667.229 586.463L686.597 570.863L745.583 502.938L783.699 476.067L827.43 457.58L848.803 443.506L887.935 394.161L907.578 373.671L928.65 350.404L979.277 395.997L985.734 325.331L993.192 312.449L1012.4 320.895L1024.05 308.731L1036.37 312.43L1026.48 282.988L990.584 252.346L1010.6 255.845L1013.19 243.375L1022.59 243.587L1060.41 280.171L1023.84 226.327Z" fill="#515A60"/>
</g>
<mask id="mask19_445_78" style="mask-type:luminance" maskUnits="userSpaceOnUse" x="-76" y="-30" width="2122" height="1156">
<path d="M2045.51 -29.5957H-75.2693V1125.58H2045.51V-29.5957Z" fill="white"/>
</mask>
<g mask="url(#mask19_445_78)">
<path fill-rule="evenodd" clip-rule="evenodd" d="M120.751 797.791L109.36 762.368L-23.1071 725.751L-90.8867 734.618L-101.953 1007.26V1048.27L-8.76968 998.156C-8.76968 998.156 116.601 873.159 120.751 868.723C124.902 864.287 120.751 797.791 120.751 797.791Z" fill="#515A60"/>
</g>
<mask id="mask20_445_78" style="mask-type:luminance" maskUnits="userSpaceOnUse" x="-76" y="-30" width="2122" height="1156">
<path d="M2045.51 -29.5957H-75.2693V1125.58H2045.51V-29.5957Z" fill="white"/>
</mask>
<g mask="url(#mask20_445_78)">
<path fill-rule="evenodd" clip-rule="evenodd" d="M43.3878 1015.05C58.0843 1008.81 178.25 904.917 178.25 904.917C178.25 904.917 93.5301 912.536 89.2081 913.227C84.8862 913.918 32.1502 936.778 32.1502 936.778C32.1502 936.778 21.7756 932.62 5.35075 936.778C-11.0741 940.934 -17.9945 945.784 -30.9604 949.247C-43.9262 952.71 -71.485 960.327 -76.7253 959.983C-81.9656 959.635 -102.712 961.715 -101.85 963.794C-100.984 965.872 -135.562 1138.35 -128.649 1138.35C-121.736 1138.35 -49.9813 1147.73 -37.876 1138.35C-25.7731 1128.97 8.80736 1089.17 8.80736 1089.17C8.80736 1089.17 -31.8257 1080.85 -18.8575 1073.93C-5.8892 1067 7.942 1058.69 13.9922 1055.92C20.0449 1053.15 43.3878 1015.05 43.3878 1015.05Z" fill="#40474B"/>
</g>
<mask id="mask21_445_78" style="mask-type:luminance" maskUnits="userSpaceOnUse" x="-76" y="-30" width="2122" height="1156">
<path d="M2045.51 -29.5957H-75.2693V1125.58H2045.51V-29.5957Z" fill="white"/>
</mask>
<g mask="url(#mask21_445_78)">
<path fill-rule="evenodd" clip-rule="evenodd" d="M1088.51 480.575L1087.34 493.942L1128.06 557.863L1155.93 618.538L1166.33 565.473L1161.58 530.823L1178.33 555.752L1183.84 546.248L1163.9 496.309L1153.73 500.655L1151.65 485.316L1117.66 462.042L1114.01 477.079L1088.51 480.575Z" fill="#5E6C76"/>
</g>
<mask id="mask22_445_78" style="mask-type:luminance" maskUnits="userSpaceOnUse" x="-76" y="-30" width="2122" height="1156">
<path d="M2045.51 -29.5957H-75.2693V1125.58H2045.51V-29.5957Z" fill="white"/>
</mask>
<g mask="url(#mask22_445_78)">
<path fill-rule="evenodd" clip-rule="evenodd" d="M882.918 567.242L881.513 578.235L945.27 676.786L882.918 567.242Z" fill="#5E6C76"/>
</g>
<mask id="mask23_445_78" style="mask-type:luminance" maskUnits="userSpaceOnUse" x="-76" y="-30" width="2122" height="1156">
<path d="M2045.51 -29.5957H-75.2693V1125.58H2045.51V-29.5957Z" fill="white"/>
</mask>
<g mask="url(#mask23_445_78)">
<path fill-rule="evenodd" clip-rule="evenodd" d="M867.549 593.053L866.792 606.914L942.857 708.827L867.549 593.053Z" fill="#5E6C76"/>
</g>
<mask id="mask24_445_78" style="mask-type:luminance" maskUnits="userSpaceOnUse" x="-76" y="-30" width="2122" height="1156">
<path d="M2045.51 -29.5957H-75.2693V1125.58H2045.51V-29.5957Z" fill="white"/>
</mask>
<g mask="url(#mask24_445_78)">
<path fill-rule="evenodd" clip-rule="evenodd" d="M1165.26 423.855L1159.15 442.398L1203.57 519.117L1199.36 528.528L1293.42 663.792L1282.4 616.629L1268.18 577.102C1268.18 577.102 1239.88 533.784 1235.48 529.693C1231.09 525.602 1186.45 458.648 1186.45 458.648L1165.26 423.855Z" fill="#5E6C76"/>
</g>
<mask id="mask25_445_78" style="mask-type:luminance" maskUnits="userSpaceOnUse" x="-76" y="-30" width="2122" height="1156">
<path d="M2045.51 -29.5957H-75.2693V1125.58H2045.51V-29.5957Z" fill="white"/>
</mask>
<g mask="url(#mask25_445_78)">
<path fill-rule="evenodd" clip-rule="evenodd" d="M1799.11 845.404L1801.12 825.445L1699.87 916.56L1722.57 920.775L1707.96 936.223C1707.96 936.223 1663.55 951.666 1702.7 955.415C1741.85 959.162 1755.28 957.29 1751.19 959.631C1747.11 961.972 1711.47 978.825 1713.8 979.294C1716.14 979.762 1743.84 981.166 1743.84 981.166L1728.41 993.804L1780.99 989.123C1780.99 989.123 1801.38 1009.72 1801.12 1010.66C1800.86 1011.59 1903.69 937.164 1903.1 935.758C1902.52 934.35 1853.44 912.348 1856.36 910.007C1859.29 907.668 1887.91 866.006 1887.91 866.006C1887.91 866.006 1859.86 851.024 1856.36 851.491C1852.86 851.959 1833.58 851.024 1834.74 849.151C1835.91 847.277 1831.82 836.045 1829.48 836.514C1827.15 836.979 1799.11 845.404 1799.11 845.404Z" fill="#515A60"/>
</g>
</g>
<mask id="mask26_445_78" style="mask-type:luminance" maskUnits="userSpaceOnUse" x="-1" y="-30" width="2031" height="1151">
<path d="M2029.41 -29.5957H-0.000244141V1120.4H2029.41V-29.5957Z" fill="white"/>
</mask>
<g mask="url(#mask26_445_78)">
<path fill-rule="evenodd" clip-rule="evenodd" d="M647.781 664.58C647.781 664.58 611.444 663.811 616.662 667.209C621.881 670.61 677.198 709.716 681.658 710.608C686.119 711.502 748.502 776.976 748.502 776.976C748.502 776.976 720.717 715.378 731.865 720.74C743.014 726.099 781.441 747.981 779.214 744.41C776.986 740.835 711.468 689.405 711.468 689.405L647.781 664.58Z" fill="#F5F5F5"/>
</g>
<path fill-rule="evenodd" clip-rule="evenodd" d="M592.459 714.928C592.459 714.928 553.892 715.26 559.236 719.561C564.58 723.863 598.832 742.375 602.814 748.118C606.796 753.862 609.971 780.675 608.773 782.265C607.575 783.854 607.279 788.966 609.029 794.073C610.778 799.179 626.712 813.222 631.492 817.05C636.271 820.878 636.272 831.732 641.847 835.56C647.422 839.388 652.202 849.603 655.389 855.984C658.575 862.365 656.187 867.474 663.355 875.771C670.524 884.068 675.306 901.94 681.677 907.045C688.048 912.149 715.93 951.725 720.71 956.192C725.49 960.659 737.438 993.847 739.032 995.763C740.625 997.679 736.641 1030.23 739.032 1032.78C741.423 1035.34 832.234 978.532 832.234 974.702C832.234 970.872 810.726 956.192 809.93 949.809C809.135 943.426 802.759 889.81 800.371 879.597C797.982 869.384 800.371 846.406 790.015 849.599C779.66 852.791 758.947 866.195 757.354 861.726C755.76 857.257 747.794 840.663 750.98 832.366C754.167 824.069 744.607 797.26 744.607 797.26L735.85 783.11C735.85 783.11 688.846 753.858 681.675 751.942C674.504 750.027 592.459 714.928 592.459 714.928Z" fill="#515A60"/>
</g>
<defs>
<clipPath id="clip0_445_78">
<rect width="2029.41" height="1150" fill="white"/>
</clipPath>
</defs>
</svg>
