<svg width="55" height="54" viewBox="0 0 55 54" fill="none" xmlns="http://www.w3.org/2000/svg">
<path d="M27.4999 0.333496C42.2279 0.333496 54.1666 12.2722 54.1666 27.0002C54.1666 41.7282 42.2279 53.6668 27.4999 53.6668C12.7719 53.6668 0.833252 41.7282 0.833252 27.0002C0.833252 12.2722 12.7719 0.333496 27.4999 0.333496ZM27.4999 35.0002C26.7927 35.0002 26.1144 35.2811 25.6143 35.7812C25.1142 36.2813 24.8333 36.9596 24.8333 37.6668C24.8333 38.3741 25.1142 39.0523 25.6143 39.5524C26.1144 40.0525 26.7927 40.3335 27.4999 40.3335C28.2072 40.3335 28.8854 40.0525 29.3855 39.5524C29.8856 39.0523 30.1666 38.3741 30.1666 37.6668C30.1666 36.9596 29.8856 36.2813 29.3855 35.7812C28.8854 35.2811 28.2072 35.0002 27.4999 35.0002ZM27.4999 11.0002C26.8468 11.0002 26.2164 11.24 25.7283 11.6741C25.2402 12.1081 24.9283 12.7062 24.8519 13.3548L24.8333 13.6668V29.6668C24.834 30.3465 25.0943 31.0002 25.5608 31.4945C26.0274 31.9887 26.6651 32.2861 27.3436 32.326C28.0221 32.3658 28.6903 32.145 29.2115 31.7088C29.7327 31.2725 30.0676 30.6537 30.1479 29.9788L30.1666 29.6668V13.6668C30.1666 12.9596 29.8856 12.2813 29.3855 11.7812C28.8854 11.2811 28.2072 11.0002 27.4999 11.0002Z" fill="#FEB903"/>
</svg>
