<svg width="48" height="48" viewBox="0 0 48 48" fill="none" xmlns="http://www.w3.org/2000/svg">
<g id="noto:owl" clip-path="url(#clip0_307_786)">
<path id="Vector" d="M36.5101 23.4713C36.5101 23.4713 38.1976 19.83 38.0139 16.5825C37.8939 14.4975 38.3589 5.47125 24.6301 5.205C10.9051 4.9425 10.0576 12.9825 10.0576 16.9238C10.0576 19.8788 11.3776 22.68 11.3776 22.68C11.3776 22.68 10.2676 22.4175 9.00011 23.895C7.73261 25.3725 7.67261 28.5713 8.57636 30.3375C9.71261 32.5538 11.5839 33.8213 11.5839 33.8213L15.4914 39.5775C15.4914 39.5775 14.9101 41.1863 13.9089 42.375C13.2339 43.1775 11.8164 44.4225 11.8501 44.91C11.9026 45.6488 13.4326 45.2813 15.6526 45.3863C17.8689 45.4913 24.1539 44.4375 24.1539 44.4375L33.5514 45.0188C34.3951 45.0713 36.2176 45.2025 36.4539 44.6475C36.6001 44.3063 35.1714 43.0725 34.5789 42.0075C33.8139 40.635 33.3376 38.4713 33.3376 38.4713C33.3376 38.4713 35.0814 34.83 35.8201 34.2488C36.5589 33.6675 38.6176 31.08 39.1989 29.7075C39.7801 28.335 39.9901 25.7475 38.7751 24.5325C37.8751 23.6213 36.5101 23.4713 36.5101 23.4713Z" fill="#6E4F44"/>
<path id="Vector_2" d="M32.3138 7.31626C32.3138 7.31626 33.1051 5.62876 34.6913 4.59751C36.1538 3.64876 37.8863 3.75376 38.0176 3.88501C38.1488 4.01626 37.8151 5.26501 37.2263 6.10126C36.7238 6.81376 36.1951 7.36876 36.2776 7.44751C36.4238 7.59376 36.9226 6.94876 37.5713 6.41626C38.4413 5.70376 39.5776 5.44126 39.7088 5.54626C39.8401 5.65126 40.0238 7.55251 39.1801 9.16126C38.3888 10.665 36.9376 11.6175 36.9376 11.6175L34.9051 8.87251L32.3138 7.31626ZM16.6051 7.12876C16.6051 7.12876 15.6563 5.17501 14.5201 4.01251C13.3838 2.85001 11.6176 2.19001 11.4038 2.40376C11.1901 2.61751 11.2201 3.90751 11.4826 4.75126C11.7451 5.59501 12.5401 6.43876 12.3001 6.60001C12.0638 6.75751 11.6513 5.80126 11.2426 5.35876C10.5826 4.64626 9.39384 4.06501 9.18384 4.19626C8.97384 4.32751 8.47134 6.33376 9.47259 8.18251C10.3613 9.82126 11.6626 11.3513 11.6626 11.3513L14.7263 8.42251L16.6051 7.12876Z" fill="#6E4F44"/>
<path id="Vector_3" d="M17.6101 41.6475C17.6101 41.6475 17.4226 42.4275 16.4476 43.3012C15.3376 44.295 13.4551 45.5887 14.6513 46.0125C15.8476 46.4362 17.5388 46.4362 19.2976 46.0837C21.0563 45.7312 22.7813 45.2025 24.0151 45.2025C25.2451 45.2025 27.7463 45.66 28.9763 45.8362C30.2063 46.0125 31.7776 46.1662 32.6701 45.9787C33.4988 45.8025 33.8926 45.435 32.4676 43.9537C31.8563 43.32 30.8063 41.5425 30.8063 41.5425L23.6963 42.705L17.6101 41.6475Z" fill="#878787"/>
<path id="Vector_4" d="M13.6689 23.0288C13.6689 23.0288 12.2252 23.1713 11.6289 23.9775C11.0327 24.7838 10.2227 27.075 10.3614 30.3113C10.5039 33.5475 11.9102 36.2963 13.7402 38.7225C15.5702 41.1525 18.0677 43.6163 23.7339 43.44C29.4002 43.2638 32.3552 41.82 33.8364 39.2175C35.3139 36.6113 37.1439 33.165 37.3202 29.925C37.4964 26.6888 35.8764 23.73 35.3477 23.3438C34.8189 22.9575 23.9102 22.4288 23.9102 22.4288L13.6689 23.0288Z" fill="#875D54"/>
<path id="Vector_5" d="M15.8138 23.0288C15.8138 23.0288 12.33 26.16 12.9638 31.65C13.5225 36.495 16.9763 41.4713 23.7675 41.505C31.4775 41.5462 34.32 36.0413 34.7138 31.5788C35.1713 26.37 32.2163 23.2012 31.8263 22.8862C31.44 22.5712 15.8138 23.0288 15.8138 23.0288Z" fill="url(#paint0_linear_307_786)"/>
<path id="Vector_6" d="M24.0865 27.5362C24.0865 27.5362 27.1127 24.3337 29.5052 23.7C31.8977 23.0662 35.3477 23.3475 35.3477 23.3475C35.3477 23.3475 36.9565 20.9362 37.0727 16.3087C37.1965 11.34 34.5752 9.19875 34.5752 9.19875C34.5752 9.19875 30.2102 8.355 27.184 11.52C24.649 14.1712 24.9677 17.3625 24.9677 17.3625L23.6027 17.1337C23.6027 17.1337 23.6215 13.5862 21.1202 11.4075C18.619 9.22875 15.1802 8.67 15.1802 8.67C15.1802 8.67 11.0027 10.9012 10.9052 16.0537C10.8002 21.5775 12.8852 23.1525 12.8852 23.1525C12.8852 23.1525 16.2715 23.2387 19.264 24.2962C22.2565 25.3537 24.0865 27.5362 24.0865 27.5362Z" fill="#F2A35B"/>
<path id="Vector_7" d="M34.9612 16.0613C34.9612 18.7988 33.4875 20.925 30.42 21.27C27.0975 21.645 25.455 19.1138 25.455 16.3763C25.455 13.6388 27.5812 11.4188 30.2062 11.4188C32.8312 11.4188 34.9612 13.3238 34.9612 16.0613ZM22.3687 13.725C23.73 16.2 23.1862 19.8638 20.9175 20.8463C18.2437 22.0088 15.4162 20.8575 14.055 18.3825C12.6937 15.9075 13.5937 13.08 15.8925 11.8163C18.1912 10.5525 21.0075 11.25 22.3687 13.725ZM29.3812 27.4275C30.0075 27.5663 30.33 26.37 31.0537 26.9513C31.7737 27.5325 30.7537 28.6388 29.6287 28.6763C28.5037 28.71 27.2887 27.9375 27.7087 27.1988C28.1325 26.46 28.6612 27.27 29.3812 27.4275ZM32.0587 30.4725C32.955 30.3863 33.3975 29.3813 33.9937 29.9963C34.59 30.6113 33.6225 31.6688 32.1112 31.755C30.5962 31.8413 29.79 31.0688 30.1237 30.4688C30.4575 29.8763 30.9825 30.5775 32.0587 30.4725ZM24.225 30.8775C25.3312 30.9413 25.4025 29.82 26.2125 30.21C27.0225 30.5963 26.0737 32.2838 24.33 32.2688C22.3575 32.25 21.6412 30.8138 22.1812 30.3675C22.9575 29.7338 23.0287 30.8063 24.225 30.8775ZM18.84 27.7275C19.5975 27.6825 19.4737 26.7413 20.4937 27.0938C21.3562 27.3938 20.37 29.0475 18.7162 29.0288C17.2387 29.0138 16.4287 27.78 16.8337 27.4088C17.6362 26.6813 17.9625 27.78 18.84 27.7275ZM15.5325 30.4388C16.185 30.42 16.3237 29.5575 17.0475 29.9813C17.7675 30.405 17.1525 31.7588 15.48 31.7775C13.9837 31.7925 13.4325 30.7538 13.845 30.3C14.4787 29.595 14.8837 30.4575 15.5325 30.4388Z" fill="#D0805F"/>
<path id="Vector_8" d="M26.4451 16.9237C26.9888 18.6412 29.0213 19.56 30.8438 18.9825C32.6663 18.405 33.6113 16.5787 33.0263 14.7075C32.3626 12.585 30.4351 12.1425 28.6088 12.72C26.7826 13.2937 25.8976 15.2025 26.4451 16.9237ZM15.6563 13.455C14.5801 14.9025 14.7188 16.9237 16.2563 18.0637C17.7938 19.2037 19.8676 19.2825 21.0413 17.7112C22.3763 15.93 21.8176 13.98 20.2838 12.8362C18.7501 11.6925 16.7326 12.0112 15.6563 13.455Z" fill="#FFFEFF"/>
<path id="Vector_9" d="M31.7923 14.91C32.2423 16.0575 31.8373 17.37 30.6523 17.8387C29.4635 18.3075 27.9485 17.7525 27.4948 16.605C27.0448 15.4575 27.5285 14.1225 28.7173 13.65C29.9998 13.14 31.3385 13.7625 31.7923 14.91ZM20.6173 16.695C20.006 17.7637 18.3635 18.0862 17.096 17.2762C16.0198 16.59 15.9373 15.18 16.5523 14.1075C17.1635 13.0387 18.5623 12.8587 19.736 13.35C21.1648 13.95 21.2323 15.6262 20.6173 16.695Z" fill="#303232"/>
<path id="Vector_10" d="M22.2713 17.2912C22.2713 17.2912 22.2113 19.5787 22.2713 20.355C22.3575 21.465 22.5938 22.2637 22.9238 22.9237C23.2763 23.6287 23.805 24.4012 24.0675 24.4012C24.33 24.4012 24.8775 23.655 25.1925 22.9425C25.455 22.3425 25.7363 21.5362 25.86 20.145C25.965 18.9637 25.965 17.5387 25.965 17.5387L22.2713 17.2912Z" fill="#2F2F2F"/>
<path id="Vector_11" d="M24.0861 15.2175C25.3011 15.1913 25.6536 15.9375 25.9161 16.5712C26.0736 16.95 26.1786 17.7338 26.0736 17.8725C25.9686 18.015 25.0536 18.2438 24.2248 18.2438C23.3961 18.2438 22.0086 17.9438 21.9898 17.715C21.9711 17.4863 22.1998 16.6312 22.4286 16.29C22.8523 15.6562 23.2574 15.2325 24.0861 15.2175Z" fill="#FEB903"/>
<g id="Vector_12">
<path d="M24.0314 -4L24.3052 -3.91688L35.2427 -0.252375L37.7295 0.5675L36.2814 1.03125V8.6875C36.8037 8.99113 37.1564 9.545 37.1564 10.1925C37.1564 10.6566 36.972 11.1017 36.6438 11.4299C36.3156 11.7581 35.8705 11.9425 35.4064 11.9425C34.9422 11.9425 34.4971 11.7581 34.1689 11.4299C33.8407 11.1017 33.6564 10.6566 33.6564 10.1925C33.6564 9.545 34.009 8.99113 34.5314 8.6875V1.635L32.7814 2.20812V6.6925C32.7814 7.41 32.3439 8.005 31.8241 8.41625C31.3044 8.82487 30.6586 9.11362 29.8834 9.37262C28.3311 9.88887 26.2854 10.1925 24.0314 10.1925C21.7774 10.1925 19.7316 9.88975 18.1794 9.37175C17.4041 9.11362 16.7584 8.82487 16.2386 8.41537C15.7189 8.005 15.2814 7.41 15.2814 6.6925V2.20812L12.82 1.38737L10.3332 0.5675L12.8209 -0.25325L23.7584 -3.91688L24.0314 -4ZM24.0314 -2.16688L15.8282 0.5675L24.0314 3.30187L32.2345 0.5675L24.0314 -2.16688ZM31.0314 2.81012L24.3044 5.05187L24.0314 5.13412L23.7575 5.051L17.0314 2.80925V6.6925C17.0314 6.70125 17.0279 6.80275 17.3052 7.02062C17.5817 7.23937 18.0779 7.515 18.7271 7.732C20.0239 8.16337 21.9357 8.4425 24.0314 8.4425C26.127 8.4425 28.0389 8.16425 29.3365 7.73112C29.984 7.515 30.481 7.2385 30.7575 7.02062C31.0357 6.80187 31.0314 6.70125 31.0314 6.6925V2.81012Z" fill="black"/>
<path d="M31.0314 2.81012L24.3044 5.05187L24.0314 5.13412L23.7575 5.051L17.0314 2.80925V6.6925C17.0313 6.70318 17.0309 6.80515 17.3052 7.02062C17.5817 7.23937 18.0779 7.515 18.7271 7.732C20.0239 8.16337 21.9357 8.4425 24.0314 8.4425C26.127 8.4425 28.0389 8.16425 29.3365 7.73112C29.984 7.515 30.481 7.2385 30.7575 7.02062C31.032 6.8048 31.0314 6.70356 31.0314 6.6925V2.81012Z" fill="white"/>
<path d="M24.0314 -2.16688L15.8282 0.5675L24.0314 3.30187L32.2345 0.5675L24.0314 -2.16688Z" fill="white"/>
</g>
</g>
<defs>
<linearGradient id="paint0_linear_307_786" x1="23.7776" y1="22.8071" x2="23.8935" y2="41.5072" gradientUnits="userSpaceOnUse">
<stop offset="0.05" stop-color="#F5DBB8"/>
<stop offset="0.238" stop-color="#F2D2AF"/>
<stop offset="0.547" stop-color="#E9B996"/>
<stop offset="0.894" stop-color="#DC9673"/>
</linearGradient>
<clipPath id="clip0_307_786">
<rect width="48" height="48" fill="white"/>
</clipPath>
</defs>
</svg>
