<svg width="49" height="49" viewBox="0 0 49 49" fill="none" xmlns="http://www.w3.org/2000/svg">
<g id="noto:owl">
<path id="Vector" d="M37.01 23.9713C37.01 23.9713 38.6975 20.33 38.5137 17.0825C38.3937 14.9975 38.8587 5.97125 25.13 5.705C11.405 5.4425 10.5575 13.4825 10.5575 17.4238C10.5575 20.3788 11.8775 23.18 11.8775 23.18C11.8775 23.18 10.7675 22.9175 9.49999 24.395C8.23249 25.8725 8.17249 29.0713 9.07624 30.8375C10.2125 33.0538 12.0837 34.3213 12.0837 34.3213L15.9912 40.0775C15.9912 40.0775 15.41 41.6863 14.4087 42.875C13.7337 43.6775 12.3162 44.9225 12.35 45.41C12.4025 46.1488 13.9325 45.7813 16.1525 45.8863C18.3687 45.9913 24.6537 44.9375 24.6537 44.9375L34.0512 45.5188C34.895 45.5713 36.7175 45.7025 36.9537 45.1475C37.1 44.8063 35.6712 43.5725 35.0787 42.5075C34.3137 41.135 33.8375 38.9713 33.8375 38.9713C33.8375 38.9713 35.5812 35.33 36.32 34.7488C37.0587 34.1675 39.1175 31.58 39.6987 30.2075C40.28 28.835 40.49 26.2475 39.275 25.0325C38.375 24.1213 37.01 23.9713 37.01 23.9713Z" fill="#6E4F44"/>
<path id="Vector_2" d="M32.8137 7.8162C32.8137 7.8162 33.605 6.1287 35.1912 5.09745C36.6537 4.1487 38.3862 4.25369 38.5175 4.38494C38.6487 4.51619 38.315 5.76495 37.7262 6.6012C37.2237 7.3137 36.695 7.8687 36.7775 7.94745C36.9237 8.0937 37.4225 7.4487 38.0712 6.9162C38.9412 6.2037 40.0775 5.9412 40.2087 6.0462C40.34 6.1512 40.5237 8.05245 39.68 9.6612C38.8887 11.1649 37.4375 12.1174 37.4375 12.1174L35.405 9.37245L32.8137 7.8162ZM17.105 7.6287C17.105 7.6287 16.1562 5.67494 15.02 4.51244C13.8837 3.34994 12.1175 2.68994 11.9037 2.90369C11.69 3.11744 11.72 4.40744 11.9825 5.25119C12.245 6.09494 13.04 6.9387 12.8 7.09995C12.5637 7.25745 12.1512 6.30119 11.7425 5.8587C11.0825 5.14619 9.89372 4.56494 9.68372 4.69619C9.47372 4.82744 8.97122 6.8337 9.97247 8.68245C10.8612 10.3212 12.1625 11.8512 12.1625 11.8512L15.2262 8.92244L17.105 7.6287Z" fill="#6E4F44"/>
<path id="Vector_3" d="M18.11 42.1475C18.11 42.1475 17.9225 42.9275 16.9475 43.8012C15.8375 44.795 13.955 46.0887 15.1512 46.5125C16.3475 46.9362 18.0387 46.9362 19.7975 46.5837C21.5562 46.2312 23.2812 45.7025 24.515 45.7025C25.745 45.7025 28.2462 46.16 29.4762 46.3362C30.7062 46.5125 32.2775 46.6662 33.17 46.4787C33.9987 46.3025 34.3925 45.935 32.9675 44.4537C32.3562 43.82 31.3062 42.0425 31.3062 42.0425L24.1962 43.205L18.11 42.1475Z" fill="#878787"/>
<path id="Vector_4" d="M14.1688 23.5287C14.1688 23.5287 12.725 23.6712 12.1288 24.4775C11.5325 25.2837 10.7225 27.575 10.8613 30.8112C11.0038 34.0475 12.41 36.7962 14.24 39.2225C16.07 41.6525 18.5675 44.1162 24.2338 43.94C29.9 43.7637 32.855 42.32 34.3363 39.7175C35.8138 37.1112 37.6438 33.665 37.82 30.425C37.9963 27.1887 36.3763 24.23 35.8475 23.8437C35.3188 23.4575 24.41 22.9287 24.41 22.9287L14.1688 23.5287Z" fill="#875D54"/>
<path id="Vector_5" d="M16.3138 23.5286C16.3138 23.5286 12.83 26.6598 13.4638 32.1498C14.0225 36.9948 17.4763 41.9711 24.2675 42.0048C31.9775 42.0461 34.82 36.5411 35.2138 32.0786C35.6713 26.8698 32.7163 23.7011 32.3263 23.3861C31.94 23.0711 16.3138 23.5286 16.3138 23.5286Z" fill="url(#paint0_linear_900_27)"/>
<path id="Vector_6" d="M24.5862 28.0362C24.5862 28.0362 27.6125 24.8337 30.005 24.1999C32.3975 23.5662 35.8475 23.8474 35.8475 23.8474C35.8475 23.8474 37.4562 21.4362 37.5725 16.8087C37.6962 11.8399 35.075 9.69867 35.075 9.69867C35.075 9.69867 30.71 8.85492 27.6837 12.0199C25.1487 14.6712 25.4675 17.8624 25.4675 17.8624L24.1025 17.6337C24.1025 17.6337 24.1212 14.0862 21.62 11.9074C19.1187 9.72867 15.68 9.16992 15.68 9.16992C15.68 9.16992 11.5025 11.4012 11.405 16.5537C11.3 22.0774 13.385 23.6524 13.385 23.6524C13.385 23.6524 16.7712 23.7387 19.7637 24.7962C22.7562 25.8537 24.5862 28.0362 24.5862 28.0362Z" fill="#F2A35B"/>
<path id="Vector_7" d="M35.4612 16.5612C35.4612 19.2987 33.9875 21.425 30.92 21.77C27.5975 22.145 25.955 19.6137 25.955 16.8762C25.955 14.1387 28.0812 11.9187 30.7062 11.9187C33.3312 11.9187 35.4612 13.8237 35.4612 16.5612ZM22.8687 14.225C24.23 16.7 23.6862 20.3637 21.4175 21.3462C18.7437 22.5087 15.9162 21.3575 14.555 18.8825C13.1937 16.4075 14.0937 13.58 16.3925 12.3162C18.6912 11.0525 21.5075 11.75 22.8687 14.225ZM29.8812 27.9275C30.5075 28.0662 30.83 26.87 31.5537 27.4512C32.2737 28.0325 31.2537 29.1387 30.1287 29.1762C29.0037 29.21 27.7887 28.4375 28.2087 27.6987C28.6325 26.96 29.1612 27.77 29.8812 27.9275ZM32.5587 30.9725C33.455 30.8862 33.8975 29.8812 34.4937 30.4962C35.09 31.1112 34.1225 32.1687 32.6112 32.255C31.0962 32.3412 30.29 31.5687 30.6237 30.9687C30.9575 30.3762 31.4825 31.0775 32.5587 30.9725ZM24.725 31.3775C25.8312 31.4412 25.9025 30.32 26.7125 30.71C27.5225 31.0962 26.5737 32.7837 24.83 32.7687C22.8575 32.75 22.1412 31.3137 22.6812 30.8675C23.4575 30.2337 23.5287 31.3062 24.725 31.3775ZM19.34 28.2275C20.0975 28.1825 19.9737 27.2412 20.9937 27.5937C21.8562 27.8937 20.87 29.5475 19.2162 29.5287C17.7387 29.5137 16.9287 28.28 17.3337 27.9087C18.1362 27.1812 18.4625 28.28 19.34 28.2275ZM16.0325 30.9387C16.685 30.92 16.8237 30.0575 17.5475 30.4812C18.2675 30.905 17.6525 32.2587 15.98 32.2775C14.4837 32.2925 13.9325 31.2537 14.345 30.8C14.9787 30.095 15.3837 30.9575 16.0325 30.9387Z" fill="#D0805F"/>
<path id="Vector_8" d="M26.945 17.4236C27.4887 19.1411 29.5212 20.0598 31.3437 19.4823C33.1662 18.9048 34.1112 17.0786 33.5262 15.2073C32.8625 13.0848 30.935 12.6423 29.1087 13.2198C27.2825 13.7936 26.3975 15.7023 26.945 17.4236ZM16.1562 13.9548C15.08 15.4023 15.2187 17.4236 16.7562 18.5636C18.2937 19.7036 20.3675 19.7823 21.5412 18.2111C22.8762 16.4298 22.3175 14.4798 20.7837 13.3361C19.25 12.1923 17.2325 12.5111 16.1562 13.9548Z" fill="#FFFEFF"/>
<path id="Vector_9" d="M32.2925 15.4102C32.7425 16.5577 32.3375 17.8702 31.1525 18.3389C29.9638 18.8077 28.4488 18.2527 27.995 17.1052C27.545 15.9577 28.0288 14.6227 29.2175 14.1502C30.5 13.6402 31.8388 14.2627 32.2925 15.4102ZM21.1175 17.1952C20.5063 18.2639 18.8638 18.5864 17.5963 17.7764C16.52 17.0902 16.4375 15.6802 17.0525 14.6077C17.6638 13.5389 19.0625 13.3589 20.2363 13.8502C21.665 14.4502 21.7325 16.1264 21.1175 17.1952Z" fill="#303232"/>
<path id="Vector_10" d="M22.7713 17.791C22.7713 17.791 22.7113 20.0785 22.7713 20.8548C22.8575 21.9648 23.0938 22.7635 23.4238 23.4235C23.7763 24.1285 24.305 24.901 24.5675 24.901C24.83 24.901 25.3775 24.1548 25.6925 23.4423C25.955 22.8423 26.2363 22.036 26.36 20.6448C26.465 19.4635 26.465 18.0385 26.465 18.0385L22.7713 17.791Z" fill="#2F2F2F"/>
<path id="Vector_11" d="M24.5862 15.7175C25.8012 15.6912 26.1537 16.4375 26.4162 17.0712C26.5737 17.45 26.6787 18.2337 26.5737 18.3725C26.4687 18.515 25.5537 18.7437 24.725 18.7437C23.8962 18.7437 22.5087 18.4437 22.49 18.215C22.4712 17.9862 22.7 17.1312 22.9287 16.79C23.3525 16.1562 23.7575 15.7325 24.5862 15.7175Z" fill="#FEB903"/>
</g>
<defs>
<linearGradient id="paint0_linear_900_27" x1="24.2776" y1="23.3069" x2="24.3935" y2="42.0071" gradientUnits="userSpaceOnUse">
<stop offset="0.05" stop-color="#F5DBB8"/>
<stop offset="0.238" stop-color="#F2D2AF"/>
<stop offset="0.547" stop-color="#E9B996"/>
<stop offset="0.894" stop-color="#DC9673"/>
</linearGradient>
</defs>
</svg>
