<svg width="48" height="48" viewBox="0 0 48 48" fill="none" xmlns="http://www.w3.org/2000/svg">
<path fill-rule="evenodd" clip-rule="evenodd" d="M24 4C35.046 4 44 12.954 44 24C44 35.046 35.046 44 24 44C12.954 44 4 35.046 4 24C4 12.954 12.954 4 24 4ZM24 26C21.5645 26.0001 19.2127 26.889 17.386 28.5C16.9882 28.8509 16.746 29.3454 16.7128 29.8748C16.6796 30.4043 16.8581 30.9252 17.209 31.323C17.5599 31.7208 18.0544 31.963 18.5838 31.9962C19.1133 32.0294 19.6342 31.8509 20.032 31.5C21.1279 30.5335 22.5388 30.0002 24 30C25.4619 29.9964 26.8741 30.5303 27.968 31.5C28.3658 31.8511 28.8868 32.0299 29.4165 31.9969C29.9461 31.9639 30.4409 31.7218 30.792 31.324C31.1431 30.9262 31.3219 30.4052 31.2889 29.8755C31.2559 29.3459 31.0138 28.8511 30.616 28.5C28.7888 26.8886 26.4362 25.9996 24 26ZM17 16C16.2044 16 15.4413 16.3161 14.8787 16.8787C14.3161 17.4413 14 18.2044 14 19C14 19.7956 14.3161 20.5587 14.8787 21.1213C15.4413 21.6839 16.2044 22 17 22C17.7956 22 18.5587 21.6839 19.1213 21.1213C19.6839 20.5587 20 19.7956 20 19C20 18.2044 19.6839 17.4413 19.1213 16.8787C18.5587 16.3161 17.7956 16 17 16ZM31 16C30.2044 16 29.4413 16.3161 28.8787 16.8787C28.3161 17.4413 28 18.2044 28 19C28 19.7956 28.3161 20.5587 28.8787 21.1213C29.4413 21.6839 30.2044 22 31 22C31.7956 22 32.5587 21.6839 33.1213 21.1213C33.6839 20.5587 34 19.7956 34 19C34 18.2044 33.6839 17.4413 33.1213 16.8787C32.5587 16.3161 31.7956 16 31 16Z" fill="#F3404A"/>
</svg>
