<svg width="20" height="20" viewBox="0 0 20 20" fill="none" xmlns="http://www.w3.org/2000/svg">
<g id="mingcute:mail-send-fill">
<g id="Group">
<path id="Vector" d="M16.6667 3.3335C17.1087 3.3335 17.5327 3.50909 17.8452 3.82165C18.1578 4.13421 18.3334 4.55814 18.3334 5.00016V15.0002C18.3334 15.4422 18.1578 15.8661 17.8452 16.1787C17.5327 16.4912 17.1087 16.6668 16.6667 16.6668H3.33339C2.89136 16.6668 2.46744 16.4912 2.15488 16.1787C1.84231 15.8661 1.66672 15.4422 1.66672 15.0002V14.1668H3.33339V15.0002H16.6667V6.186L10.8876 11.9652C10.6531 12.1995 10.3353 12.3311 10.0038 12.3311C9.67235 12.3311 9.35446 12.1995 9.12005 11.9652L3.33339 6.1785V6.66683H1.66672V5.00016C1.66672 4.55814 1.84231 4.13421 2.15488 3.82165C2.46744 3.50909 2.89136 3.3335 3.33339 3.3335H16.6667ZM5.00005 10.8335C5.21245 10.8337 5.41675 10.9151 5.57119 11.0609C5.72564 11.2067 5.81858 11.406 5.83103 11.618C5.84348 11.83 5.77449 12.0388 5.63817 12.2017C5.50184 12.3646 5.30847 12.4692 5.09755 12.4943L5.00005 12.5002H0.833387C0.620987 12.4999 0.416693 12.4186 0.262246 12.2728C0.1078 12.127 0.0148575 11.9277 0.00240993 11.7157C-0.0100377 11.5036 0.0589488 11.2948 0.195274 11.132C0.331599 10.9691 0.524974 10.8644 0.735887 10.8393L0.833387 10.8335H5.00005ZM4.16672 8.3335C4.38773 8.3335 4.5997 8.42129 4.75598 8.57757C4.91226 8.73385 5.00005 8.94582 5.00005 9.16683C5.00005 9.38784 4.91226 9.5998 4.75598 9.75608C4.5997 9.91236 4.38773 10.0002 4.16672 10.0002H1.66672C1.44571 10.0002 1.23374 9.91236 1.07746 9.75608C0.921184 9.5998 0.833387 9.38784 0.833387 9.16683C0.833387 8.94582 0.921184 8.73385 1.07746 8.57757C1.23374 8.42129 1.44571 8.3335 1.66672 8.3335H4.16672Z" fill="#F4F6F7"/>
</g>
</g>
</svg>
