<svg width="20" height="20" viewBox="0 0 20 20" fill="none" xmlns="http://www.w3.org/2000/svg">
<g id="mdi:cancel">
<path id="Vector" d="M9.99996 1.6665C14.5833 1.6665 18.3333 5.4165 18.3333 9.99984C18.3333 14.5832 14.5833 18.3332 9.99996 18.3332C5.41663 18.3332 1.66663 14.5832 1.66663 9.99984C1.66663 5.4165 5.41663 1.6665 9.99996 1.6665ZM9.99996 3.33317C8.41663 3.33317 6.99996 3.83317 5.91663 4.74984L15.25 14.0832C16.0833 12.9165 16.6666 11.4998 16.6666 9.99984C16.6666 6.33317 13.6666 3.33317 9.99996 3.33317ZM14.0833 15.2498L4.74996 5.9165C3.83329 6.99984 3.33329 8.4165 3.33329 9.99984C3.33329 13.6665 6.33329 16.6665 9.99996 16.6665C11.5833 16.6665 13 16.1665 14.0833 15.2498Z" fill="#F4F6F7"/>
</g>
</svg>
