<svg width="121" height="120" viewBox="0 0 121 120" fill="none" xmlns="http://www.w3.org/2000/svg">
<g id="img">
<rect x="0.375" width="120" height="120" rx="16" fill="#CBD2D6"/>
<path id="Vector" d="M85.6409 62.4L82.8174 65.2235L77.0291 59.4353L79.8527 56.6118C80.1429 56.3272 80.5332 56.1678 80.9397 56.1678C81.3462 56.1678 81.7365 56.3272 82.0268 56.6118L85.6409 60.2259C86.2338 60.8188 86.2338 61.8071 85.6409 62.4ZM58.2527 78.1835L75.3632 61.0729L81.1515 66.8612L64.0691 84H58.2527V78.1835ZM58.2527 64.2353C45.7727 64.2353 35.6644 69.2894 35.6644 75.5294V81.1765H52.6056V75.84L63.8997 64.5459C62.0362 64.32 60.1444 64.2353 58.2527 64.2353ZM58.2527 36C55.2573 36 52.3846 37.1899 50.2665 39.308C48.1485 41.426 46.9585 44.2987 46.9585 47.2941C46.9585 50.2895 48.1485 53.1622 50.2665 55.2803C52.3846 57.3983 55.2573 58.5882 58.2527 58.5882C61.248 58.5882 64.1208 57.3983 66.2388 55.2803C68.3569 53.1622 69.5468 50.2895 69.5468 47.2941C69.5468 44.2987 68.3569 41.426 66.2388 39.308C64.1208 37.1899 61.248 36 58.2527 36Z" fill="#5E6C76"/>
</g>
</svg>
