<svg width="121" height="120" viewBox="0 0 121 120" fill="none" xmlns="http://www.w3.org/2000/svg">
<g id="img">
<rect x="0.25" width="120" height="120" rx="16" fill="#D6F2FF"/>
<path id="Vector" d="M57.9643 36C56.7519 36 55.5891 36.4816 54.7318 37.3389C53.8745 38.1962 53.3929 39.359 53.3929 40.5714C53.3768 40.7921 53.3768 41.0136 53.3929 41.2343C46.81 43.1771 41.9643 49.3029 41.9643 56.5714V70.2857L37.3929 74.8571V77.1429H78.5357V74.8571L73.9643 70.2857V56.5714C73.9643 49.3029 69.1186 43.1771 62.5357 41.2343C62.5518 41.0136 62.5518 40.7921 62.5357 40.5714C62.5357 39.359 62.0541 38.1962 61.1968 37.3389C60.3395 36.4816 59.1767 36 57.9643 36ZM57.9643 45.1429C60.9953 45.1429 63.9022 46.3469 66.0455 48.4902C68.1888 50.6335 69.3929 53.5404 69.3929 56.5714V72.5714H46.5357V56.5714C46.5357 53.5404 47.7398 50.6335 49.8831 48.4902C52.0263 46.3469 54.9332 45.1429 57.9643 45.1429ZM78.5357 47.4286V61.1429H83.1071V47.4286H78.5357ZM78.5357 65.7143V70.2857H83.1071V65.7143H78.5357ZM53.3929 79.4286C53.3929 80.641 53.8745 81.8038 54.7318 82.6611C55.5891 83.5184 56.7519 84 57.9643 84C59.1767 84 60.3395 83.5184 61.1968 82.6611C62.0541 81.8038 62.5357 80.641 62.5357 79.4286H53.3929Z" fill="#1EACFF"/>
</g>
</svg>
