<svg width="121" height="120" viewBox="0 0 121 120" fill="none" xmlns="http://www.w3.org/2000/svg">
<g id="img">
<rect x="0.625" width="120" height="120" rx="16" fill="#D6D6E1"/>
<path id="Vector" d="M76.0536 41.1429H70.9107V39.4286C70.9107 38.5193 70.5495 37.6472 69.9065 37.0042C69.2636 36.3612 68.3915 36 67.4822 36H53.7679C52.8586 36 51.9865 36.3612 51.3435 37.0042C50.7005 37.6472 50.3393 38.5193 50.3393 39.4286V41.1429H45.1965C44.2871 41.1429 43.4151 41.5041 42.7721 42.1471C42.1291 42.79 41.7679 43.6621 41.7679 44.5714V80.5714C41.7679 81.4807 42.1291 82.3528 42.7721 82.9958C43.4151 83.6388 44.2871 84 45.1965 84H76.0536C76.9629 84 77.835 83.6388 78.478 82.9958C79.1209 82.3528 79.4822 81.4807 79.4822 80.5714V44.5714C79.4822 43.6621 79.1209 42.79 78.478 42.1471C77.835 41.5041 76.9629 41.1429 76.0536 41.1429ZM53.7679 39.4286H67.4822V46.2857H53.7679V39.4286ZM76.0536 80.5714H45.1965V44.5714H50.3393V49.7143H70.9107V44.5714H76.0536V80.5714Z" fill="#686A8F"/>
</g>
</svg>
