<svg width="32" height="32" viewBox="0 0 32 32" fill="none" xmlns="http://www.w3.org/2000/svg">
<g id="Frame 4" clip-path="url(#clip0_543_186)">
<circle id="Ellipse 4" cx="16" cy="16" r="16" fill="#F4F6F7"/>
<g id="Group 4">
<g id="Vector">
<path d="M15 24.6667C15 25.403 15.5958 26 16.3322 26C18.187 26 20.5787 26 22.0321 26C22.7566 26 23.3463 25.4242 23.3617 24.6998C23.4093 22.4671 23.5 17.9562 23.5 16C23.5 13.6696 23.3713 10.5448 23.3401 7.33335C23.3329 6.597 22.7358 6 21.9994 6C19.7893 6.00001 18.1009 6 16.3335 6C15.5971 6 15 6.59695 15 7.33333L15 24.6667Z" fill="#0D519B"/>
<path d="M23 16C23 16.3682 22.7015 16.6667 22.3333 16.6667C21.9651 16.6667 21.6667 16.3682 21.6667 16C21.6667 15.6318 21.9651 15.3333 22.3333 15.3333C22.7015 15.3333 23 15.6318 23 16Z" fill="#D6F2FF"/>
</g>
<path id="Line 1" d="M21 16.875C21.4832 16.875 21.875 16.4832 21.875 16C21.875 15.5168 21.4832 15.125 21 15.125V16.875ZM6.38128 15.3813C6.03957 15.723 6.03957 16.277 6.38128 16.6187L11.9497 22.1872C12.2915 22.5289 12.8455 22.5289 13.1872 22.1872C13.5289 21.8455 13.5289 21.2915 13.1872 20.9497L8.23744 16L13.1872 11.0503C13.5289 10.7085 13.5289 10.1545 13.1872 9.81282C12.8455 9.47111 12.2915 9.47111 11.9497 9.81282L6.38128 15.3813ZM21 15.125H7V16.875H21V15.125Z" fill="url(#paint0_linear_543_186)"/>
</g>
</g>
<defs>
<linearGradient id="paint0_linear_543_186" x1="7" y1="15.5" x2="21" y2="15.5" gradientUnits="userSpaceOnUse">
<stop stop-color="#0E315D"/>
<stop offset="0.57" stop-color="#1D67C3"/>
<stop offset="0.58" stop-color="white"/>
<stop offset="1" stop-color="white"/>
</linearGradient>
<clipPath id="clip0_543_186">
<rect width="32" height="32" fill="white"/>
</clipPath>
</defs>
</svg>
