<svg width="32" height="32" viewBox="0 0 32 32" fill="none" xmlns="http://www.w3.org/2000/svg">
<g id="mdi:bell-alert-outline">
<path id="Vector" d="M14.357 4C13.7508 4 13.1694 4.24082 12.7408 4.66947C12.3121 5.09812 12.0713 5.67951 12.0713 6.28571C12.0633 6.39604 12.0633 6.50681 12.0713 6.61714C8.77986 7.58857 6.357 10.6514 6.357 14.2857V21.1429L4.07129 23.4286V24.5714H24.6427V23.4286L22.357 21.1429V14.2857C22.357 10.6514 19.9341 7.58857 16.6427 6.61714C16.6507 6.50681 16.6507 6.39604 16.6427 6.28571C16.6427 5.67951 16.4019 5.09812 15.9732 4.66947C15.5446 4.24082 14.9632 4 14.357 4ZM14.357 8.57143C15.8725 8.57143 17.326 9.17347 18.3976 10.2451C19.4693 11.3167 20.0713 12.7702 20.0713 14.2857V22.2857H8.64272V14.2857C8.64272 12.7702 9.24476 11.3167 10.3164 10.2451C11.388 9.17347 12.8415 8.57143 14.357 8.57143ZM24.6427 9.71429V16.5714H26.9284V9.71429H24.6427ZM24.6427 18.8571V21.1429H26.9284V18.8571H24.6427ZM12.0713 25.7143C12.0713 26.3205 12.3121 26.9019 12.7408 27.3305C13.1694 27.7592 13.7508 28 14.357 28C14.9632 28 15.5446 27.7592 15.9732 27.3305C16.4019 26.9019 16.6427 26.3205 16.6427 25.7143H12.0713Z" fill="#535E67"/>
</g>
</svg>
