<svg width="24" height="20" viewBox="0 0 24 20" fill="none" xmlns="http://www.w3.org/2000/svg">
<g clip-path="url(#clip0_746_2152)">
<path d="M13 12.5C11.6877 12.5 10.1521 12.6309 10.0352 13.3333C9.87499 13.9583 10.3507 13.5417 10.7083 14.1667C11.3923 15 10.9299 16.3343 10.7083 16.6667C10.2917 17.2917 9.32652 17.1157 9.24999 17.2917C8.71236 18.5281 9.04166 20 9.04166 20H23V17.5C23 14.1625 16.3375 12.5 13 12.5ZM6.74999 14.1667V10.8333H4.24999V14.1667H0.916656V16.6667H4.24999V20H6.74999V16.6667H10.0833L10.0352 14.1667M13 10C14.3261 10 15.5978 9.47322 16.5355 8.53553C17.4732 7.59785 18 6.32608 18 5C18 3.67392 17.4732 2.40215 16.5355 1.46447C15.5978 0.526784 14.3261 0 13 0C11.6739 0 10.4021 0.526784 9.46446 1.46447C8.52677 2.40215 7.99999 3.67392 7.99999 5C7.99999 6.32608 8.52677 7.59785 9.46446 8.53553C10.4021 9.47322 11.6739 10 13 10Z" fill="#83DFFF"/>
</g>
<defs>
<clipPath id="clip0_746_2152">
<rect width="22.0833" height="20" fill="white" transform="translate(0.958328)"/>
</clipPath>
</defs>
</svg>
