<svg width="32" height="32" viewBox="0 0 32 32" fill="none" xmlns="http://www.w3.org/2000/svg">
<g id="mdi:user-edit">

<path id="Vector" d="M28.9335 17.8L27.6002 19.1333L24.8668 16.4L26.2002 15.0667C26.3372 14.9323 26.5215 14.857 26.7135 14.857C26.9054 14.857 27.0897 14.9323 27.2268 15.0667L28.9335 16.7733C29.2135 17.0533 29.2135 17.52 28.9335 17.8ZM16.0002 25.2533L24.0802 17.1733L26.8135 19.9067L18.7468 28H16.0002V25.2533ZM16.0002 18.6667C10.1068 18.6667 5.3335 21.0533 5.3335 24V26.6667H13.3335V24.1467L18.6668 18.8133C17.7868 18.7067 16.8935 18.6667 16.0002 18.6667ZM16.0002 5.33333C14.5857 5.33333 13.2291 5.89523 12.2289 6.89543C11.2287 7.89562 10.6668 9.25217 10.6668 10.6667C10.6668 12.0811 11.2287 13.4377 12.2289 14.4379C13.2291 15.4381 14.5857 16 16.0002 16C17.4146 16 18.7712 15.4381 19.7714 14.4379C20.7716 13.4377 21.3335 12.0811 21.3335 10.6667C21.3335 9.25217 20.7716 7.89562 19.7714 6.89543C18.7712 5.89523 17.4146 5.33333 16.0002 5.33333Z" fill="#5E6C76"/>
</g>
</svg>
