<svg width="21" height="20" viewBox="0 0 21 20" fill="none" xmlns="http://www.w3.org/2000/svg">
<g id="material-symbols:edit">
<path id="Vector" d="M3.1001 17V13.6944L13.3668 3.44722C13.5223 3.30463 13.6942 3.19444 13.8824 3.11667C14.0706 3.03889 14.2682 3 14.4751 3C14.682 3 14.8829 3.03889 15.0779 3.11667C15.2728 3.19444 15.4414 3.31111 15.5834 3.46667L16.6529 4.55556C16.8084 4.69815 16.922 4.86667 16.9935 5.06111C17.0651 5.25556 17.1006 5.45 17.1001 5.64444C17.1001 5.85185 17.0646 6.04967 16.9935 6.23789C16.9225 6.42611 16.8089 6.59774 16.6529 6.75278L6.40565 17H3.1001ZM14.4556 6.73333L15.5445 5.64444L14.4556 4.55556L13.3668 5.64444L14.4556 6.73333Z" fill="#22262A"/>
</g>
</svg>