<svg width="32" height="32" viewBox="0 0 32 32" fill="none" xmlns="http://www.w3.org/2000/svg">
<g id="carbon:report-data">
<path id="Vector" d="M15 20H17V24H15V20ZM20 18H22V24H20V18ZM10 14H12V24H10V14Z" fill="#535E67"/>
<path id="Vector_2" d="M23.2141 6.57143H20.6427V5.71429C20.6427 5.25963 20.4621 4.82359 20.1406 4.5021C19.8191 4.18061 19.3831 4 18.9284 4H12.0713C11.6166 4 11.1806 4.18061 10.8591 4.5021C10.5376 4.82359 10.357 5.25963 10.357 5.71429V6.57143H7.78557C7.33092 6.57143 6.89488 6.75204 6.57339 7.07353C6.2519 7.39502 6.07129 7.83106 6.07129 8.28571V26.2857C6.07129 26.7404 6.2519 27.1764 6.57339 27.4979C6.89488 27.8194 7.33092 28 7.78557 28H23.2141C23.6688 28 24.1048 27.8194 24.4263 27.4979C24.7478 27.1764 24.9284 26.7404 24.9284 26.2857V8.28571C24.9284 7.83106 24.7478 7.39502 24.4263 7.07353C24.1048 6.75204 23.6688 6.57143 23.2141 6.57143ZM12.0713 5.71429H18.9284V9.14286H12.0713V5.71429ZM23.2141 26.2857H7.78557V8.28571H10.357V10.8571H20.6427V8.28571H23.2141V26.2857Z" fill="#535E67"/>
</g>
</svg>
