<svg xmlns="http://www.w3.org/2000/svg" width="32" height="32" viewBox="0 0 32 32" fill="none">
<!-- <rect width="32" height="32" rx="16" fill="#F4F6F7"/> -->
<path d="M21 26C20.6458 26 20.3492 25.88 20.11 25.64C19.8708 25.4 19.7508 25.1033 19.75 24.75V18.5C19.75 18.1458 19.87 17.8492 20.11 17.61C20.35 17.3708 20.6467 17.2508 21 17.25H27.25C27.6042 17.25 27.9012 17.37 28.1412 17.61C28.3812 17.85 28.5008 18.1467 28.5 18.5V24.75C28.5 25.1042 28.38 25.4012 28.14 25.6412C27.9 25.8812 27.6033 26.0008 27.25 26H21ZM16 14.75C15.6458 14.75 15.3492 14.63 15.11 14.39C14.8708 14.15 14.7508 13.8533 14.75 13.5V7.25C14.75 6.89583 14.87 6.59917 15.11 6.36C15.35 6.12083 15.6467 6.00083 16 6H27.25C27.6042 6 27.9012 6.12 28.1412 6.36C28.3812 6.6 28.5008 6.89667 28.5 7.25V13.5C28.5 13.8542 28.38 14.1512 28.14 14.3912C27.9 14.6312 27.6033 14.7508 27.25 14.75H16ZM4.75 26C4.39583 26 4.09917 25.88 3.86 25.64C3.62083 25.4 3.50083 25.1033 3.5 24.75V18.5C3.5 18.1458 3.62 17.8492 3.86 17.61C4.1 17.3708 4.39667 17.2508 4.75 17.25H16C16.3542 17.25 16.6512 17.37 16.8912 17.61C17.1312 17.85 17.2508 18.1467 17.25 18.5V24.75C17.25 25.1042 17.13 25.4012 16.89 25.6412C16.65 25.8812 16.3533 26.0008 16 26H4.75ZM4.75 14.75C4.39583 14.75 4.09917 14.63 3.86 14.39C3.62083 14.15 3.50083 13.8533 3.5 13.5V7.25C3.5 6.89583 3.62 6.59917 3.86 6.36C4.1 6.12083 4.39667 6.00083 4.75 6H11C11.3542 6 11.6512 6.12 11.8912 6.36C12.1312 6.6 12.2508 6.89667 12.25 7.25V13.5C12.25 13.8542 12.13 14.1512 11.89 14.3912C11.65 14.6312 11.3533 14.7508 11 14.75H4.75Z" fill="#535E67"/>
</svg>