<svg width="49" height="48" viewBox="0 0 49 48" fill="none" xmlns="http://www.w3.org/2000/svg">
<path fill-rule="evenodd" clip-rule="evenodd" d="M24.5 4C35.546 4 44.5 12.954 44.5 24C44.5 35.046 35.546 44 24.5 44C13.454 44 4.5 35.046 4.5 24C4.5 12.954 13.454 4 24.5 4ZM24.5 26C22.0645 26.0001 19.7127 26.889 17.886 28.5C17.4882 28.8509 17.246 29.3454 17.2128 29.8748C17.1796 30.4043 17.3581 30.9252 17.709 31.323C18.0599 31.7208 18.5544 31.963 19.0838 31.9962C19.6133 32.0294 20.1342 31.8509 20.532 31.5C21.6279 30.5335 23.0388 30.0002 24.5 30C25.9619 29.9964 27.3741 30.5303 28.468 31.5C28.8658 31.8511 29.3868 32.0299 29.9165 31.9969C30.4461 31.9639 30.9409 31.7218 31.292 31.324C31.6431 30.9262 31.8219 30.4052 31.7889 29.8755C31.7559 29.3459 31.5138 28.8511 31.116 28.5C29.2888 26.8886 26.9362 25.9996 24.5 26ZM17.5 16C16.7044 16 15.9413 16.3161 15.3787 16.8787C14.8161 17.4413 14.5 18.2044 14.5 19C14.5 19.7956 14.8161 20.5587 15.3787 21.1213C15.9413 21.6839 16.7044 22 17.5 22C18.2956 22 19.0587 21.6839 19.6213 21.1213C20.1839 20.5587 20.5 19.7956 20.5 19C20.5 18.2044 20.1839 17.4413 19.6213 16.8787C19.0587 16.3161 18.2956 16 17.5 16ZM31.5 16C30.7044 16 29.9413 16.3161 29.3787 16.8787C28.8161 17.4413 28.5 18.2044 28.5 19C28.5 19.7956 28.8161 20.5587 29.3787 21.1213C29.9413 21.6839 30.7044 22 31.5 22C32.2956 22 33.0587 21.6839 33.6213 21.1213C34.1839 20.5587 34.5 19.7956 34.5 19C34.5 18.2044 34.1839 17.4413 33.6213 16.8787C33.0587 16.3161 32.2956 16 31.5 16Z" fill="#F3404A"/>
</svg>
